# xmcd CD database file
#
# Track frame offsets:
#	150
#	15160
#	32730
#	48985
#	62705
#
# Disc length: 1022 seconds
#
# Revision: 0
# Processed by: cddbd v1.5.1PL2 Copyright (c) Steve Scherf et al.
# Submitted via: CDex 1.51
#
DISCID=3203fc05
DTITLE=Railroad Bill - 20th Anniversary Skiffle Session
DYEAR=2006
DGENRE=Country
TTITLE0=Gamblin' Man
TTITLE1=Long Lost John
TTITLE2=KC Moan
TTITLE3=Yonder Comes a Sucker
TTITLE4=Wild About My Lovin' (Bonus Track)
EXTD=YEAR: 2006
EXTT0=
EXTT1=
EXTT2=
EXTT3=
EXTT4=
PLAYORDER=
